<?xml version="1.0" standalone="no"?>
<!DOCTYPE svg PUBLIC "-//W3C//DTD SVG 1.1//EN" "http://www.w3.org/Graphics/SVG/1.1/DTD/svg11.dtd" >
<svg xmlns="http://www.w3.org/2000/svg">
<metadata>
This is a custom SVG webfont generated by Font Squirrel.
Copyright   : Created by Harrisson Ludi and Antoine Begon with FontForge 20 httpfontforgesfnet  Brussels  2011
</metadata>
<defs>
<font id="OSPDIN" horiz-adv-x="786" >
<font-face units-per-em="2048" ascent="1638" descent="-410" />
<missing-glyph horiz-adv-x="380" />
<glyph unicode=" "  horiz-adv-x="380" />
<glyph unicode="&#x09;" horiz-adv-x="380" />
<glyph unicode="&#xa0;" horiz-adv-x="380" />
<glyph unicode="!" horiz-adv-x="434" d="M115 0v205h204v-205h-204zM115 1024v410h204v-410l-51 -717h-102z" />
<glyph unicode="&#x22;" horiz-adv-x="618" d="M109 1106v328h163v-328h-163zM346 1106v328h164v-328h-164z" />
<glyph unicode="%" horiz-adv-x="856" d="M86 1092v4v144q0 64 45 109t109 45t109 -44t46 -108v-146q0 -65 -45.5 -110t-109.5 -45q-63 0 -107.5 44t-46.5 107zM106 -203l472 1637h160l-470 -1637h-162zM189 1096q0 -22 15 -37t36 -15t36.5 14.5t15.5 35.5v146q0 21 -15 35.5t-36.5 14.5t-36.5 -14.5t-15 -35.5 v-144zM461 -28v144q0 65 45 110t110 45q63 0 108 -44t46 -107v-148q0 -64 -45.5 -109t-108.5 -45q-64 0 -108.5 44t-46.5 106v4zM564 -28q0 -21 15 -35.5t37 -14.5q20 0 35 14t15 34v146q0 22 -14.5 37t-36 15t-36.5 -15t-15 -35v-146z" />
<glyph unicode="'" horiz-adv-x="380" d="M109 1106v328h163v-328h-163z" />
<glyph unicode="(" horiz-adv-x="448" d="M39 614q0 150 26.5 298.5t68.5 262t64.5 165t43.5 90.5l2 4h102q0 -4 -10 -58.5t-25.5 -139.5t-31 -186.5t-25.5 -219t-10 -216.5q0 -152 25.5 -356.5t48 -321t28.5 -141.5h-102q-205 410 -205 819z" />
<glyph unicode=")" horiz-adv-x="448" d="M346 614q0 150 -26.5 298.5t-68.5 262t-64.5 165t-43.5 90.5l-2 4h-102q0 -4 10 -58.5t25.5 -139.5t31 -186.5t25.5 -219t10 -216.5q0 -152 -25.5 -356.5t-48 -321t-28.5 -141.5h102q205 410 205 819z" />
<glyph unicode="+" horiz-adv-x="1013" d="M96 411v206h308v307h206v-307h308v-206h-308v-308h-206v308h-308z" />
<glyph unicode="," horiz-adv-x="376" d="M86 205h205v-205l-205 -205v410z" />
<glyph unicode="-" horiz-adv-x="671" d="M90 565v164h492v-164h-492z" />
<glyph unicode="." horiz-adv-x="376" d="M86 0v205h205v-205h-205z" />
<glyph unicode="/" horiz-adv-x="550" d="M530 1637l-306 -1840h-173l306 1840h173z" />
<glyph unicode="0" horiz-adv-x="753" d="M70 307v819q0 127 90 217.5t217 90.5t217 -90.5t90 -217.5v-819q0 -127 -90 -217t-217 -90t-217 90t-90 217zM274 307q0 -43 30 -72.5t73 -29.5t72.5 29.5t29.5 72.5v819q0 43 -29.5 73t-72.5 30t-73 -30t-30 -73v-819z" />
<glyph unicode="1" horiz-adv-x="753" d="M109 1024v205l204 205h205v-1434h-205v1229z" />
<glyph unicode="2" horiz-adv-x="753" d="M70 0v205l385 842q25 59 24 79q0 43 -29.5 73t-72.5 30t-73 -30t-30 -73h-204q0 127 90 217.5t217 90.5t217 -90.5t90 -217.5q0 -68 -27 -127l-358 -794h385v-205h-614z" />
<glyph unicode="3" horiz-adv-x="753" d="M70 307v103h204v-103q0 -43 30 -72.5t73 -29.5t72.5 29.5t29.5 72.5v205q0 43 -29.5 72.5t-72.5 29.5v205q43 0 72.5 30t29.5 73v204q0 43 -29.5 73t-72.5 30t-73 -30t-30 -73v-102h-204v102q0 127 90 217.5t217 90.5t217 -90.5t90 -217.5v-204q0 -117 -78 -205 q78 -88 78 -205v-205q0 -127 -90 -217t-217 -90t-217 90t-90 217z" />
<glyph unicode="4" horiz-adv-x="651" d="M18 205v205l205 1024h205l-205 -1024h154v307h205v-307h51v-205h-51v-205h-205v205h-359z" />
<glyph unicode="5" horiz-adv-x="753" d="M70 307v103h204v-103q0 -43 30 -72.5t73 -29.5t72.5 29.5t29.5 72.5v307q0 43 -29.5 73t-72.5 30t-73 -30t-30 -73h-204v615v205h512v-205h-308v-326q49 18 103 19q127 0 217 -90.5t90 -217.5v-307q0 -127 -90 -217t-217 -90t-217 90t-90 217z" />
<glyph unicode="6" horiz-adv-x="753" d="M70 307v307v512q0 127 90 217.5t217 90.5t217 -90.5t90 -217.5v-102h-205v102q0 43 -29.5 73t-72.5 30t-73 -30t-30 -73v-223q49 18 103 19q127 0 217 -90.5t90 -217.5v-307q0 -127 -90 -217t-217 -90t-217 90t-90 217zM274 307q0 -43 30 -72.5t73 -29.5t72.5 29.5 t29.5 72.5v307q0 43 -29.5 73t-72.5 30t-73 -30t-30 -73v-307z" />
<glyph unicode="7" horiz-adv-x="751" d="M70 2l409 1229h-207v-103h-202v306h612v-203l-410 -1229h-202z" />
<glyph unicode="8" horiz-adv-x="753" d="M70 307v283q0 117 77 205q-78 86 -77 204v127q0 127 90 217.5t217 90.5t217 -90.5t90 -217.5v-127q0 -119 -78 -204q78 -88 78 -205v-283q0 -127 -90 -217t-217 -90t-217 90t-90 217zM274 307q0 -43 30 -72.5t73 -29.5t72.5 29.5t29.5 72.5v283q0 43 -29.5 72.5 t-72.5 29.5t-73 -29.5t-30 -72.5v-283zM274 999q0 -45 30 -73.5t73 -28.5t72.5 28.5t29.5 73.5v127q0 43 -29.5 73t-72.5 30t-73 -30t-30 -73v-127z" />
<glyph unicode="9" horiz-adv-x="753" d="M70 307v103h204v-103q0 -43 30 -72.5t73 -29.5t72.5 29.5t29.5 72.5v223q-49 -18 -102 -18q-127 0 -217 90t-90 217v307q0 127 90 217.5t217 90.5t217 -90.5t90 -217.5v-307v-512q0 -127 -90 -217t-217 -90t-217 90t-90 217zM274 819q0 -43 30 -72.5t73 -29.5t72.5 29.5 t29.5 72.5v307q0 43 -29.5 73t-72.5 30t-73 -30t-30 -73v-307z" />
<glyph unicode=":" horiz-adv-x="376" d="M86 0v205h205v-205h-205zM86 819v205h205v-205h-205z" />
<glyph unicode=";" horiz-adv-x="376" d="M86 205h205v-205l-205 -205v410zM86 819v205h205v-205h-205z" />
<glyph unicode="&#x3c;" horiz-adv-x="901" d="M443 527l431 429v-217l-214 -212l214 -213v-216z" />
<glyph unicode="=" horiz-adv-x="671" d="M90 315v164h492v-164h-492zM90 565v164h492v-164h-492z" />
<glyph unicode="&#x3e;" horiz-adv-x="901" d="M450 98l431 429l-431 429v-217l214 -212l-214 -213v-216z" />
<glyph unicode="?" horiz-adv-x="745" d="M66 1024v102q0 127 90 217.5t217 90.5t217 -90.5t90 -217.5v-153q0 -80 -43 -172q-18 -39 -70.5 -117t-66.5 -121q-10 -35 -16.5 -72.5t-8.5 -60.5v-20v-103h-205v154q0 80 43 172q18 39 70.5 116.5t67.5 120.5q10 35 16 73t8 61v20v102q0 43 -29.5 73t-72.5 30t-73 -30 t-30 -73v-102h-204zM270 0v205h205v-205h-205z" />
<glyph unicode="@" horiz-adv-x="2048" />
<glyph unicode="A" horiz-adv-x="825" d="M4 0l307 1434h203l307 -1434h-203l-61 307l-289 2l-61 -309h-203zM309 510h207l-102 514h-2z" />
<glyph unicode="B" horiz-adv-x="808" d="M98 0v1432h410q84 0 143.5 -59.5t59.5 -145.5v-434q0 -31 -22.5 -53.5t-53.5 -22.5v-2q31 0 53.5 -22.5t22.5 -53.5v-436q0 -84 -59.5 -143.5t-143.5 -59.5h-410zM301 203h129q33 0 55.5 22.5t22.5 55.5v256q0 33 -22.5 55t-55.5 22h-129v-411zM301 817h129 q33 0 55.5 22.5t22.5 55.5v256q0 33 -22.5 55.5t-55.5 22.5h-129v-412z" />
<glyph unicode="C" horiz-adv-x="761" d="M86 307v819q0 127 90 217.5t217 90.5t217 -90.5t90 -217.5v-102h-204v102q0 43 -30 73t-73 30t-72.5 -30t-29.5 -73v-819q0 -43 29.5 -72.5t72.5 -29.5t73 29.5t30 72.5v103h204v-103q0 -127 -90 -217t-217 -90t-217 90t-90 217z" />
<glyph unicode="D" horiz-adv-x="808" d="M98 0v1434h410q84 0 143.5 -59.5t59.5 -145.5v-1026q0 -84 -59.5 -143.5t-143.5 -59.5h-410zM301 203h129q33 0 55.5 22.5t22.5 55.5v872q0 33 -22.5 55.5t-55.5 22.5h-129v-1028z" />
<glyph unicode="E" horiz-adv-x="749" d="M98 0v1434h615v-205h-410v-410h307v-205h-307v-409h410v-205h-615z" />
<glyph unicode="F" horiz-adv-x="749" d="M98 0h205v614h307v205h-307v410h410v205h-615v-1434z" />
<glyph unicode="G" d="M86 307v819q0 127 90 217.5t217 90.5t217 -90.5t90 -217.5h-204q0 43 -30 73t-73 30t-72.5 -30t-29.5 -73v-819q0 -43 29.5 -72.5t72.5 -29.5t73 29.5t30 72.5v307h-103v205h307v-512q0 -127 -90 -217t-217 -90t-217 90t-90 217z" />
<glyph unicode="H" horiz-adv-x="811" d="M98 0v1434h205v-615h205v615h205v-1434h-205v614h-205v-614h-205z" />
<glyph unicode="I" horiz-adv-x="413" d="M104 0v1434h205v-1434h-205z" />
<glyph unicode="J" horiz-adv-x="462" d="M-45 0v205h102q43 0 73 29.5t30 72.5v1127h205v-1229q0 -84 -60.5 -144.5t-144.5 -60.5h-205z" />
<glyph unicode="K" horiz-adv-x="706" d="M98 0v1434h205v-512l205 512h205l-236 -590l236 -844h-205l-154 537l-51 -127v-410h-205z" />
<glyph unicode="L" horiz-adv-x="749" d="M98 0v1434h205v-1229h410v-205h-615z" />
<glyph unicode="M" horiz-adv-x="1118" d="M98 0v1434h205l256 -768l256 768h205v-1434h-205v768l-153 -461h-205l-154 461v-768h-205z" />
<glyph unicode="N" horiz-adv-x="794" d="M90 0v1434h205l205 -717v717h205v-1434h-205l-205 717v-717h-205z" />
<glyph unicode="O" d="M86 307v819q0 127 90 217.5t217 90.5t217 -90.5t90 -217.5v-819q0 -127 -90 -217t-217 -90t-217 90t-90 217zM291 307q0 -43 29.5 -72.5t72.5 -29.5t73 29.5t30 72.5v289v240v290q0 43 -30 73t-73 30t-72.5 -30t-29.5 -73v-290v-240v-289z" />
<glyph unicode="P" horiz-adv-x="768" d="M98 0v1432h410q84 0 143.5 -59.5t59.5 -145.5v-410q0 -84 -59.5 -143.5t-143.5 -59.5h-207v-614h-203zM301 817h129q33 0 55.5 22.5t22.5 55.5v256q0 33 -22.5 55.5t-55.5 22.5h-129v-412z" />
<glyph unicode="Q" horiz-adv-x="790" d="M86 307v819q0 127 90 217.5t217 90.5t217 -90.5t90 -217.5v-827q0 -43 30 -72.5t73 -29.5v-205q-121 0 -209 82q-86 -74 -201 -74q-127 0 -217 90t-90 217zM291 307q0 -43 29.5 -72.5t72.5 -29.5t73 29.5t30 72.5v819q0 43 -30 73t-73 30t-72.5 -30t-29.5 -73v-819z" />
<glyph unicode="R" horiz-adv-x="788" d="M98 0v1432l410 -2q84 0 143.5 -59.5t59.5 -143.5v-410q0 -117 -101 -176l101 -641h-203l-102 614h-105v-614h-203zM301 815h129q33 0 55.5 23.5t22.5 54.5v256q0 33 -22.5 56.5t-55.5 23.5h-129v-414z" />
<glyph unicode="S" horiz-adv-x="729" d="M57 307q0 -127 90.5 -217t217.5 -90t217 90t90 217v205q0 117 -78 205q-92 102 -229 102q-43 0 -73 30t-30 73v204q0 43 30 73t73 30t72.5 -30t29.5 -73v-102h186h19v102q0 127 -90 217.5t-217 90.5t-217.5 -90.5t-90.5 -217.5v-204q0 -117 78 -205q92 -102 230 -103 q43 0 72.5 -29.5t29.5 -72.5v-205q0 -43 -29.5 -72.5t-72.5 -29.5t-73 29.5t-30 72.5v103h-205v-103z" />
<glyph unicode="T" horiz-adv-x="602" d="M-6 1229v205h614v-205h-205v-1229h-204v1229h-205z" />
<glyph unicode="U" horiz-adv-x="811" d="M98 307v1127h205v-1127q0 -43 29.5 -72.5t73 -29.5t73 29.5t29.5 72.5v1127h205v-1127q0 -127 -90.5 -217t-217 -90t-217 90t-90.5 217z" />
<glyph unicode="V" horiz-adv-x="770" d="M27 1434l256 -1436h206l256 1436h-206v-2l-154 -838l-152 838v2h-206z" />
<glyph unicode="W" horiz-adv-x="1296" d="M33 1436l256 -1436h207l153 856l152 -856h207l256 1434h-207l-152 -838l-153 840h-207l-154 -840l-151 840h-207z" />
<glyph unicode="X" horiz-adv-x="712" d="M-4 0h207l153 432l152 -432h207l-256 717l256 719h-207l-152 -432l-153 432h-207l256 -719z" />
<glyph unicode="Y" horiz-adv-x="737" d="M6 1434l256 -1026v-410h207v410l256 1026h-207l-151 -613l-154 613h-207z" />
<glyph unicode="Z" horiz-adv-x="673" d="M31 0h612v203h-410l410 1026v203l-612 2v-205h409l-409 -1026v-203z" />
<glyph unicode="[" horiz-adv-x="544" d="M119 -102v1637v102h409v-102h-203v-1637h203v-102h-409v102z" />
<glyph unicode="\" horiz-adv-x="519" d="M20 1637l306 -1840h173l-306 1840h-173z" />
<glyph unicode="]" horiz-adv-x="544" d="M16 -102v-102h410v102v1637v102h-410v-102h204v-1637h-204z" />
<glyph unicode="^" horiz-adv-x="733" d="M51 1229l203 254h205l203 -254h-177l-129 155l-129 -155h-176z" />
<glyph unicode="`" horiz-adv-x="825" d="M209 1739h203l153 -254h-151z" />
<glyph unicode="a" horiz-adv-x="733" d="M51 205v102q0 127 90 217t217 90q43 0 73 30t30 73t-30 72.5t-73 29.5t-72.5 -29.5t-29.5 -72.5h-205q0 127 90 217t217 90t217.5 -90t90.5 -217v-717h-207l1 182q0 -11 -13 -49q-11 -35 -30.5 -61.5t-61.5 -49t-99 -22.5t-99 21.5t-61.5 51t-31 59.5t-11.5 52zM256 307 q0 -4 1 -11t6 -24.5t14.5 -31t30.5 -24.5t50 -11q45 0 71 25.5t30 50.5l2 26v121q-49 -18 -103 -18q-43 0 -72.5 -30t-29.5 -73z" />
<glyph unicode="b" d="M86 0h205v205q0 -8 1 -22.5t12 -49.5t30.5 -61.5t61.5 -49t99.5 -22.5t99.5 21.5t61.5 51t30.5 59.5t11 52l2 21v102v410v102q0 8 -1 22.5t-12 49.5t-30.5 61.5t-61.5 49t-99.5 22.5t-99.5 -21.5t-61.5 -51t-30.5 -59.5t-11 -52l-2 -21v615h-205v-1434zM291 297v10v410 q0 4 1 11t6 24.5t14.5 31t31 24.5t49.5 11q45 0 70.5 -25.5t30.5 -52.5l2 -24v-410q0 -4 -1 -11t-6.5 -24.5t-14.5 -31t-30.5 -24.5t-50 -11t-50 10t-31 25.5t-14.5 31t-7 25.5z" />
<glyph unicode="c" horiz-adv-x="733" d="M82 307v410q0 127 90 217t217 90t217 -90t90 -217h-204q0 43 -30 72.5t-73 29.5t-72.5 -29.5t-29.5 -72.5v-410q0 -43 29.5 -72.5t72.5 -29.5t73 29.5t30 72.5h204q0 -127 -90 -217t-217 -90t-217 90t-90 217z" />
<glyph unicode="d" d="M86 205v102v410v102q0 8 1 22.5t12.5 49.5t31 61.5t61 49t99 22.5t99.5 -21.5t61.5 -51t31 -59.5t11.5 -52l2 -21v615h204v-1434h-204v205q0 -8 -1 -22.5t-12.5 -49.5t-31 -61.5t-61.5 -49t-99.5 -22.5t-99 21.5t-61 51t-31 59.5t-11.5 52zM291 307q0 -4 1 -11t6 -24.5 t14.5 -31t31 -24.5t49.5 -11q45 0 70.5 25.5t30.5 52.5l2 24v410q0 4 -1 11t-6.5 24.5t-14.5 31t-30.5 24.5t-50.5 11q-45 0 -70.5 -25.5t-29.5 -52.5l-2 -24v-410z" />
<glyph unicode="e" horiz-adv-x="749" d="M68 307v410q0 127 90 217t217 90t217 -90t90 -217v-103v-204h-205h-205v-103q0 -43 30 -72.5t73 -29.5t72.5 29.5t29.5 72.5h205q0 -127 -90 -217t-217 -90t-217 90t-90 217zM272 614h205v103q0 43 -29.5 72.5t-72.5 29.5t-73 -29.5t-30 -72.5v-103z" />
<glyph unicode="f" horiz-adv-x="450" d="M20 819v205h103v106q2 125 91 214.5t216 89.5v-205q-43 0 -72.5 -30t-29.5 -73v-102h102v-205h-102v-819h-205v819h-103z" />
<glyph unicode="g" d="M86 -109h205q0 -43 29.5 -72.5t72.5 -29.5q41 0 72 29.5t31 70.5v2v314q0 -8 -1 -22.5t-12.5 -49.5t-31 -61.5t-61.5 -49t-99.5 -22.5t-99 21.5t-61 51t-31 59.5t-11.5 52l-2 21v102v410v102q0 8 1 22.5t12.5 49.5t31 61.5t61 49t99 22.5t99.5 -21.5t61.5 -51t31 -59.5 t11.5 -52l2 -21v205h204v-1133v-4q-2 -125 -91 -214t-216 -89t-217 90t-90 217zM291 307q0 -4 1 -11t6 -24.5t14.5 -31t31 -24.5t49.5 -11q45 0 70.5 25.5t30.5 52.5l2 24v410q0 4 -1 11t-6.5 24.5t-14.5 31t-30.5 24.5t-50.5 11q-45 0 -70.5 -25.5t-29.5 -52.5l-2 -24v-410 z" />
<glyph unicode="h" d="M86 0v1434h205v-615q0 8 1 22.5t12 49.5t30.5 61.5t61.5 49t99.5 22.5t99.5 -21.5t61.5 -51t30.5 -59.5t11 -52l2 -21v-100v-2v-717h-204v717v2q0 8 -3.5 19.5t-11.5 33t-30.5 34.5t-57.5 13q-31 0 -53.5 -12t-31.5 -30.5t-13 -31t-4 -24.5v-721h-205z" />
<glyph unicode="i" horiz-adv-x="376" d="M86 0v1024h205v-1024h-205zM86 1229v205h205v-205h-205z" />
<glyph unicode="j" horiz-adv-x="348" d="M-45 -102q43 0 72.5 29.5t29.5 72.5v1024h205v-1024q0 -127 -90 -217t-217 -90v205zM57 1229v205h205v-205h-205z" />
<glyph unicode="k" horiz-adv-x="686" d="M86 0v205v1229h205v-820l205 410h204l-204 -410l204 -614h-204l-123 369l-82 -164v-205h-205z" />
<glyph unicode="l" horiz-adv-x="408" d="M74 305v4v1125h205v-1125v-4q2 -41 31.5 -70.5t72.5 -29.5v-205q-127 0 -217 89t-92 216z" />
<glyph unicode="m" horiz-adv-x="1196" d="M86 0v1024h205v-205q0 8 1 22.5t12 49.5t30.5 61.5t61.5 49t99.5 22.5t99.5 -21.5t61.5 -51t30.5 -59.5t11 -52l2 -21q0 8 1 22.5t12.5 49.5t31 61.5t61.5 49t99.5 22.5t99.5 -21.5t61 -51t30.5 -59.5t11.5 -52l2 -21v-100v-719h-205v717q0 4 -1 11t-6 24.5t-14.5 31 t-31 24.5t-49.5 11q-31 0 -53.5 -12t-31.5 -30.5t-13.5 -31t-4.5 -24.5v-2v-719h-204v717q0 4 -1 11t-6.5 24.5t-14.5 31t-30.5 24.5t-50.5 11q-31 0 -53.5 -12t-31.5 -30.5t-13 -31t-4 -24.5v-721h-205z" />
<glyph unicode="n" d="M86 0v1024h205v-205q0 8 1 22.5t12 49.5t30.5 61.5t61.5 49t99.5 22.5t99.5 -21.5t61.5 -51t30.5 -59.5t11 -52l2 -21v-100v-2v-717h-204v717v2q0 8 -3.5 19.5t-11.5 33t-30.5 34.5t-57.5 13q-31 0 -53.5 -12t-31.5 -30.5t-13 -31t-4 -24.5v-721h-205z" />
<glyph unicode="o" horiz-adv-x="753" d="M68 297v8v406q0 129 90 219t219 90q127 0 217 -88t92 -215v-412q0 -129 -91 -219t-218 -90t-216 88t-93 213zM274 305q0 -43 30 -72.5t73 -29.5q41 0 71.5 28.5t30.5 69.5v410q0 43 -29.5 72.5t-72.5 29.5t-73 -29.5t-30 -70.5v-408z" />
<glyph unicode="p" d="M86 -410v1434h205v-205q0 8 1 22.5t12 49.5t30.5 61.5t61.5 49t99.5 22.5t99.5 -21.5t61.5 -51t30.5 -59.5t11 -52l2 -21v-100v-412v-102q0 -8 -1 -22.5t-12 -49.5t-30.5 -61.5t-61.5 -49t-99.5 -22.5t-99.5 21.5t-61.5 51t-30.5 59.5t-11 52l-2 21v-615h-205zM291 303 q0 -12 4 -24.5t13 -31t31.5 -30.5t53.5 -12t52.5 11t31.5 29.5t14.5 32t4.5 23.5v416q0 4 -1 11t-6.5 24.5t-14.5 31t-30.5 24.5t-50.5 11q-31 0 -53.5 -12t-31.5 -30.5t-13 -31t-4 -24.5v-418z" />
<glyph unicode="q" d="M86 205v96v416v102q0 8 1 22.5t12.5 49.5t31 61.5t61 49t99 22.5t99.5 -21.5t61.5 -51t31 -59.5t11.5 -52l2 -21v205h204v-1434h-204v615q0 -8 -1 -22.5t-12.5 -49.5t-31 -61.5t-61.5 -49t-99.5 -22.5t-99 21.5t-61 51t-31 59.5t-11.5 52zM291 307q0 -4 1 -11t6 -24.5 t14.5 -31t31 -24.5t49.5 -11q31 0 53.5 12t31.5 30.5t13.5 31t4.5 24.5v418q0 12 -4.5 24.5t-13.5 31t-31.5 30.5t-53.5 12q-35 0 -57.5 -13t-30.5 -34.5t-11 -33t-3 -19.5v-412z" />
<glyph unicode="r" horiz-adv-x="720" d="M86 0v1024h205v-205q0 8 1 22.5t12 49.5t30.5 61.5t61.5 49t99.5 22.5t99.5 -21.5t61.5 -51t30.5 -59.5t11 -52l2 -21v-102h-204q0 4 -1 11t-6.5 24.5t-14.5 31t-30.5 24.5t-50.5 11q-31 0 -53.5 -12t-31.5 -30.5t-13 -31t-4 -24.5v-721h-205z" />
<glyph unicode="s" horiz-adv-x="720" d="M49 307h205q0 -43 29.5 -72.5t72.5 -29.5t73 29.5t30 72.5t-31 73t-72 30q-125 2 -213 92t-88 215q2 127 92.5 217t217.5 90t217 -90t90 -217h-205q0 43 -29.5 72.5t-72.5 29.5t-73 -29.5t-30 -72.5v-5q0 -40 29 -68q31 -30 71 -30q125 -2 213.5 -92t88.5 -215 q0 -127 -90.5 -217t-217.5 -90t-217 90t-90 217z" />
<glyph unicode="t" horiz-adv-x="432" d="M10 817v205h103v307h204v-307h103v-205h-103v-512q0 -41 30 -71.5t73 -30.5v-205q-127 0 -217 90t-90 217v512h-103z" />
<glyph unicode="u" d="M86 205v100v719h205v-717q0 -4 1 -11t6 -24.5t14.5 -31t31 -24.5t49.5 -11q31 0 53.5 12t31.5 30.5t13.5 31t4.5 24.5v721h204v-1024h-204v205q0 -8 -1 -22.5t-12.5 -49.5t-31 -61.5t-61.5 -49t-99.5 -22.5t-99 21.5t-61 51t-31 59.5t-11.5 52z" />
<glyph unicode="v" horiz-adv-x="610" d="M-2 1024h205l102 -512l103 512h204l-204 -1024h-205z" />
<glyph unicode="w" horiz-adv-x="1028" d="M2 1024h205l102 -512l103 512h204l103 -512l102 512h205l-205 -1024h-205l-102 512l-102 -512h-205z" />
<glyph unicode="x" horiz-adv-x="569" d="M-23 0l205 512l-205 512h205l103 -256l102 256h205l-205 -512l205 -512h-205l-102 256l-103 -256h-205z" />
<glyph unicode="y" horiz-adv-x="610" d="M-2 1024h205l102 -512l103 512h204l-204 -1024q0 -127 -90.5 -217t-217.5 -90v205q43 0 73 29.5t30 72.5z" />
<glyph unicode="z" horiz-adv-x="684" d="M35 0v205l409 614h-409v205h614v-205l-409 -614h409v-205h-614z" />
<glyph unicode="{" horiz-adv-x="519" d="M119 651q43 0 73.5 -30t30.5 -73v-439q0 -125 70 -215.5t194 -96.5h16v208q-43 0 -73.5 30.5t-30.5 73.5v299v925q0 43 30.5 73.5t73.5 30.5v208q-129 0 -204.5 -91.5t-75.5 -220.5v-370q0 -43 -30.5 -73.5t-73.5 -30.5v-208z" />
<glyph unicode="|" horiz-adv-x="413" d="M104 -202v1841h205v-1841h-205z" />
<glyph unicode="}" horiz-adv-x="519" d="M119 5q43 0 73.5 30.5t30.5 73.5v299v925q0 43 -30.5 73.5t-73.5 30.5v208q129 0 204.5 -91.5t75.5 -220.5v-370q0 -43 30.5 -73.5t73.5 -30.5v-208q-43 0 -73.5 -30t-30.5 -73v-439q0 -125 -70 -215.5t-194 -96.5h-16v208z" />
<glyph unicode="~" horiz-adv-x="1013" d="M141 454l180 96q20 -37 60.5 -49.5t77.5 7.5q112 59 233 22t180 -149l-180 -96q-20 37 -60 49.5t-78 -7.5q-112 -59 -233 -22t-180 149z" />
<glyph unicode="&#xa1;" horiz-adv-x="434" d="M115 1434v-205h204v205h-204zM115 410v-410h204v410l-51 717h-102z" />
<glyph unicode="&#xaa;" horiz-adv-x="733" d="M51 205v102q0 127 90 217t217 90q43 0 73 30t30 73t-30 72.5t-73 29.5t-72.5 -29.5t-29.5 -72.5h-205q0 127 90 217t217 90t217.5 -90t90.5 -217v-717h-207l1 182q0 -11 -13 -49q-11 -35 -30.5 -61.5t-61.5 -49t-99 -22.5t-99 21.5t-61.5 51t-31 59.5t-11.5 52zM256 307 q0 -4 1 -11t6 -24.5t14.5 -31t30.5 -24.5t50 -11q45 0 71 25.5t30 50.5l2 26v121q-49 -18 -103 -18q-43 0 -72.5 -30t-29.5 -73z" />
<glyph unicode="&#xab;" horiz-adv-x="901" d="M20 527l431 429v-217l-215 -212l215 -213v-216zM413 527l431 429v-217l-215 -212l215 -213v-216z" />
<glyph unicode="&#xad;" horiz-adv-x="671" d="M90 565v164h492v-164h-492z" />
<glyph unicode="&#xb2;" horiz-adv-x="753" d="M70 0v205l385 842q25 59 24 79q0 43 -29.5 73t-72.5 30t-73 -30t-30 -73h-204q0 127 90 217.5t217 90.5t217 -90.5t90 -217.5q0 -68 -27 -127l-358 -794h385v-205h-614z" />
<glyph unicode="&#xb3;" horiz-adv-x="753" d="M70 307v103h204v-103q0 -43 30 -72.5t73 -29.5t72.5 29.5t29.5 72.5v205q0 43 -29.5 72.5t-72.5 29.5v205q43 0 72.5 30t29.5 73v204q0 43 -29.5 73t-72.5 30t-73 -30t-30 -73v-102h-204v102q0 127 90 217.5t217 90.5t217 -90.5t90 -217.5v-204q0 -117 -78 -205 q78 -88 78 -205v-205q0 -127 -90 -217t-217 -90t-217 90t-90 217z" />
<glyph unicode="&#xb8;" horiz-adv-x="413" d="M538 -203l205 307h102l-102 -307h-205z" />
<glyph unicode="&#xb9;" horiz-adv-x="753" d="M109 1024v205l204 205h205v-1434h-205v1229z" />
<glyph unicode="&#xba;" horiz-adv-x="753" d="M68 297v8v406q0 129 90 219t219 90q127 0 217 -88t92 -215v-412q0 -129 -91 -219t-218 -90t-216 88t-93 213zM274 305q0 -43 30 -72.5t73 -29.5q41 0 71.5 28.5t30.5 69.5v410q0 43 -29.5 72.5t-72.5 29.5t-73 -29.5t-30 -70.5v-408z" />
<glyph unicode="&#xbb;" horiz-adv-x="901" d="M57 98l431 429l-431 429v-217l214 -212l-214 -213v-216zM450 98l431 429l-431 429v-217l214 -212l-214 -213v-216z" />
<glyph unicode="&#xbf;" horiz-adv-x="745" d="M66 307v154q0 80 43 172q18 39 70 116.5t67 120.5q10 35 16 73t8 61v20v102h205v-153q0 -80 -43 -172q-18 -39 -70.5 -117t-66.5 -121q-10 -35 -16.5 -72.5t-8.5 -60.5v-20v-103q0 -43 30 -72.5t73 -29.5t72.5 29.5t29.5 72.5v103h205v-103q0 -127 -90 -217t-217 -90 t-217 90t-90 217zM270 1229v205h205v-205h-205z" />
<glyph unicode="&#xc0;" horiz-adv-x="825" d="M4 0l307 1434h203l307 -1434h-203l-61 307l-289 2l-61 -309h-203zM209 1739h203l153 -254h-151zM309 510h207l-102 514h-2z" />
<glyph unicode="&#xc1;" horiz-adv-x="825" d="M4 0l307 1434h203l307 -1434h-203l-61 307l-289 2l-61 -309h-203zM260 1487l152 254h202l-202 -254h-152zM309 510h207l-102 514h-2z" />
<glyph unicode="&#xc2;" horiz-adv-x="825" d="M4 0l307 1434h203l307 -1434h-203l-61 307l-289 2l-61 -309h-203zM104 1485l203 254h205l203 -254h-176l-129 155l-129 -155h-177zM309 510h207l-102 514h-2z" />
<glyph unicode="&#xc3;" horiz-adv-x="825" d="M47 1725l180 96q20 -37 60.5 -49.5t77.5 7.5q112 59 233 22t180 -149l-180 -96q-20 37 -60 49.5t-78 -7.5q-112 -59 -233 -22t-180 149zM4 0l307 1434h203l307 -1434h-203l-61 307l-289 2l-61 -309h-203zM309 510h207l-102 514h-2z" />
<glyph unicode="&#xc4;" horiz-adv-x="817" d="M4 0l307 1434h203l307 -1434h-203l-61 307l-289 2l-61 -309h-203zM102 1536v203h203v-203h-203zM309 510h207l-102 514h-2zM512 1536v203h203v-203h-203z" />
<glyph unicode="&#xc6;" horiz-adv-x="1267" d="M4 0l512 1432h715v-203h-410v-412h307v-203h-307v-411h410v-203h-613v305l-309 2l-102 -307h-203zM385 510h233v616h-28z" />
<glyph unicode="&#xc7;" horiz-adv-x="761" d="M137 -297l205 307h102l-102 -307h-205zM86 307v819q0 127 90 217.5t217 90.5t217 -90.5t90 -217.5v-102h-204v102q0 43 -30 73t-73 30t-72.5 -30t-29.5 -73v-819q0 -43 29.5 -72.5t72.5 -29.5t73 29.5t30 72.5v103h204v-103q0 -127 -90 -217t-217 -90t-217 90t-90 217z " />
<glyph unicode="&#xc8;" horiz-adv-x="749" d="M98 0v1434h615v-205h-410v-410h307v-205h-307v-409h410v-205h-615zM150 1741l204 -256h154l-154 256h-204z" />
<glyph unicode="&#xc9;" horiz-adv-x="749" d="M98 0v1434h615v-205h-410v-410h307v-205h-307v-409h410v-205h-615zM252 1485l154 256h204l-204 -256h-154z" />
<glyph unicode="&#xca;" horiz-adv-x="749" d="M98 0v1434h615v-205h-410v-410h307v-205h-307v-409h410v-205h-615zM98 1485l205 256h205l205 -256h-181l-126 153l-127 -153h-181z" />
<glyph unicode="&#xcb;" horiz-adv-x="749" d="M98 0v1434h615v-205h-410v-410h307v-205h-307v-409h410v-205h-615zM98 1536v205h205v-205h-205zM508 1536v205h205v-205h-205z" />
<glyph unicode="&#xcc;" horiz-adv-x="413" d="M-74 1741l205 -256h154l-154 256h-205zM104 0v1434h205v-1434h-205z" />
<glyph unicode="&#xcd;" horiz-adv-x="413" d="M104 0v1434h205v-1434h-205zM137 1483l154 256h205l-205 -256h-154z" />
<glyph unicode="&#xce;" horiz-adv-x="401" d="M-106 1485l204 256h205l205 -256h-180l-127 153l-129 -153h-178zM98 0v1434h205v-1434h-205z" />
<glyph unicode="&#xcf;" horiz-adv-x="479" d="M-68 1536v205h205v-205h-205zM137 0v1434h205v-1434h-205zM342 1536v205h205v-205h-205z" />
<glyph unicode="&#xd1;" horiz-adv-x="794" d="M32 1725l180 96q20 -37 60.5 -49.5t77.5 7.5q112 59 233 22t180 -149l-180 -96q-20 37 -60 49.5t-78 -7.5q-112 -59 -233 -22t-180 149zM90 0v1434h205l205 -717v717h205v-1434h-205l-205 717v-717h-205z" />
<glyph unicode="&#xd2;" d="M86 307v819q0 127 90 217.5t217 90.5t217 -90.5t90 -217.5v-819q0 -127 -90 -217t-217 -90t-217 90t-90 217zM184 1737h203l154 -254h-152zM291 307q0 -43 29.5 -72.5t72.5 -29.5t73 29.5t30 72.5v289v240v290q0 43 -30 73t-73 30t-72.5 -30t-29.5 -73v-290v-240v-289z " />
<glyph unicode="&#xd3;" d="M86 307v819q0 127 90 217.5t217 90.5t217 -90.5t90 -217.5v-819q0 -127 -90 -217t-217 -90t-217 90t-90 217zM238 1483l151 254h203l-203 -254h-151zM291 307q0 -43 29.5 -72.5t72.5 -29.5t73 29.5t30 72.5v289v240v290q0 43 -30 73t-73 30t-72.5 -30t-29.5 -73v-290 v-240v-289z" />
<glyph unicode="&#xd4;" d="M86 307v819q0 127 90 217.5t217 90.5t217 -90.5t90 -217.5v-819q0 -127 -90 -217t-217 -90t-217 90t-90 217zM86 1483l203 254h205l202 -254h-176l-129 155l-129 -155h-176zM291 307q0 -43 29.5 -72.5t72.5 -29.5t73 29.5t30 72.5v289v240v290q0 43 -30 73t-73 30 t-72.5 -30t-29.5 -73v-290v-240v-289z" />
<glyph unicode="&#xd5;" d="M86 307v819q0 127 90 217.5t217 90.5t217 -90.5t90 -217.5v-819q0 -127 -90 -217t-217 -90t-217 90t-90 217zM291 307q0 -43 29.5 -72.5t72.5 -29.5t73 29.5t30 72.5v289v240v290q0 43 -30 73t-73 30t-72.5 -30t-29.5 -73v-290v-240v-289z" />
<glyph unicode="&#xd6;" d="M86 307v819q0 127 90 217.5t217 90.5t217 -90.5t90 -217.5v-819q0 -127 -90 -217t-217 -90t-217 90t-90 217zM291 307q0 -43 29.5 -72.5t72.5 -29.5t73 29.5t30 72.5v289v240v290q0 43 -30 73t-73 30t-72.5 -30t-29.5 -73v-290v-240v-289z" />
<glyph unicode="&#xd7;" horiz-adv-x="917" d="M95 532l218 217l-218 218l146 145l217 -217l218 217l145 -145l-217 -218l217 -217l-145 -145l-218 217l-217 -217z" />
<glyph unicode="&#xd9;" horiz-adv-x="811" d="M98 307v1127h205v-1127q0 -43 29.5 -72.5t73 -29.5t73 29.5t29.5 72.5v1127h205v-1127q0 -127 -90.5 -217t-217 -90t-217 90t-90.5 217zM133 1739h203l153 -254h-151z" />
<glyph unicode="&#xda;" horiz-adv-x="811" d="M98 307v1127h205v-1127q0 -43 29.5 -72.5t73 -29.5t73 29.5t29.5 72.5v1127h205v-1127q0 -127 -90.5 -217t-217 -90t-217 90t-90.5 217zM326 1491l151 254h203l-203 -254h-151z" />
<glyph unicode="&#xdb;" horiz-adv-x="811" d="M98 307v1127h205v-1127q0 -43 29.5 -72.5t73 -29.5t73 29.5t29.5 72.5v1127h205v-1127q0 -127 -90.5 -217t-217 -90t-217 90t-90.5 217zM104 1485l203 254h205l203 -254h-176l-129 155l-129 -155h-177z" />
<glyph unicode="&#xdc;" horiz-adv-x="811" d="M98 307v1127h205v-1127q0 -43 29.5 -72.5t73 -29.5t73 29.5t29.5 72.5v1127h205v-1127q0 -127 -90.5 -217t-217 -90t-217 90t-90.5 217zM102 1536v203h203v-203h-203zM512 1536v203h203v-203h-203z" />
<glyph unicode="&#xe0;" horiz-adv-x="733" d="M51 205v102q0 127 90 217t217 90q43 0 73 30t30 73t-30 72.5t-73 29.5t-72.5 -29.5t-29.5 -72.5h-205q0 127 90 217t217 90t217.5 -90t90.5 -217v-717h-207l1 182q0 -11 -13 -49q-11 -35 -30.5 -61.5t-61.5 -49t-99 -22.5t-99 21.5t-61.5 51t-31 59.5t-11.5 52zM74 1434 h203l153 -254h-151zM256 307q0 -4 1 -11t6 -24.5t14.5 -31t30.5 -24.5t50 -11q45 0 71 25.5t30 50.5l2 26v121q-49 -18 -103 -18q-43 0 -72.5 -30t-29.5 -73z" />
<glyph unicode="&#xe1;" horiz-adv-x="733" d="M51 205v102q0 127 90 217t217 90q43 0 73 30t30 73t-30 72.5t-73 29.5t-72.5 -29.5t-29.5 -72.5h-205q0 127 90 217t217 90t217.5 -90t90.5 -217v-717h-207l1 182q0 -11 -13 -49q-11 -35 -30.5 -61.5t-61.5 -49t-99 -22.5t-99 21.5t-61.5 51t-31 59.5t-11.5 52zM256 307 q0 -4 1 -11t6 -24.5t14.5 -31t30.5 -24.5t50 -11q45 0 71 25.5t30 50.5l2 26v121q-49 -18 -103 -18q-43 0 -72.5 -30t-29.5 -73zM297 1180l152 254h202l-202 -254h-152z" />
<glyph unicode="&#xe2;" horiz-adv-x="733" d="M53 1147l203 254h205l203 -254h-177l-129 155l-129 -155h-176zM51 205v102q0 127 90 217t217 90q43 0 73 30t30 73t-30 72.5t-73 29.5t-72.5 -29.5t-29.5 -72.5h-205q0 127 90 217t217 90t217.5 -90t90.5 -217v-717h-207l1 182q0 -11 -13 -49q-11 -35 -30.5 -61.5 t-61.5 -49t-99 -22.5t-99 21.5t-61.5 51t-31 59.5t-11.5 52zM256 307q0 -4 1 -11t6 -24.5t14.5 -31t30.5 -24.5t50 -11q45 0 71 25.5t30 50.5l2 26v121q-49 -18 -103 -18q-43 0 -72.5 -30t-29.5 -73z" />
<glyph unicode="&#xe3;" horiz-adv-x="733" d="M-7 1315l180 96q20 -37 60.5 -49.5t77.5 7.5q112 59 233 22t180 -149l-180 -96q-20 37 -60 49.5t-78 -7.5q-112 -59 -233 -22t-180 149zM51 205v102q0 127 90 217t217 90q43 0 73 30t30 73t-30 72.5t-73 29.5t-72.5 -29.5t-29.5 -72.5h-205q0 127 90 217t217 90 t217.5 -90t90.5 -217v-717h-207l1 182q0 -11 -13 -49q-11 -35 -30.5 -61.5t-61.5 -49t-99 -22.5t-99 21.5t-61.5 51t-31 59.5t-11.5 52zM256 307q0 -4 1 -11t6 -24.5t14.5 -31t30.5 -24.5t50 -11q45 0 71 25.5t30 50.5l2 26v121q-49 -18 -103 -18q-43 0 -72.5 -30t-29.5 -73 z" />
<glyph unicode="&#xe4;" horiz-adv-x="733" d="M51 205v102q0 127 90 217t217 90q43 0 73 30t30 73t-30 72.5t-73 29.5t-72.5 -29.5t-29.5 -72.5h-205q0 127 90 217t217 90t217.5 -90t90.5 -217v-717h-207l1 182q0 -11 -13 -49q-11 -35 -30.5 -61.5t-61.5 -49t-99 -22.5t-99 21.5t-61.5 51t-31 59.5t-11.5 52zM51 1229 v203h203v-203h-203zM256 307q0 -4 1 -11t6 -24.5t14.5 -31t30.5 -24.5t50 -11q45 0 71 25.5t30 50.5l2 26v121q-49 -18 -103 -18q-43 0 -72.5 -30t-29.5 -73zM461 1229v203h203v-203h-203z" />
<glyph unicode="&#xe6;" horiz-adv-x="1146" d="M57 211v102q0 127 90.5 216t217.5 89q41 0 71.5 31t30.5 73t-30.5 71.5t-72.5 29.5t-72 -29.5t-30 -72.5h-205q0 127 90.5 217t217.5 90t216 -90t89 -217v-494h-164l26 -12q-12 6 -35 -25q-11 -14 -21.5 -49t-30 -61.5t-61.5 -49t-99.5 -22.5t-110.5 20.5t-72.5 50.5 t-31 59.5t-11.5 51.5zM256 302q0 -7 6 -24.5t15.5 -31t30.5 -24.5t50 -11q86 0 101 86q2 10 2 16v119q-51 -16 -103 -16q-43 0 -72.5 -31t-29.5 -72v-11zM463 313v408q0 127 90 217t217 90t216 -90t89 -217v-103v-202h-205h-202v-103q0 -43 29.5 -72.5t71.5 -29.5t71.5 29.5 t29.5 72.5h205q0 -127 -89 -217t-216 -90t-217 90t-90 217zM672 618h202v103q0 43 -29.5 72.5t-71.5 29.5t-71.5 -29.5t-29.5 -72.5v-103z" />
<glyph unicode="&#xe7;" horiz-adv-x="733" d="M82 307v410q0 127 90 217t217 90t217 -90t90 -217h-204q0 43 -30 72.5t-73 29.5t-72.5 -29.5t-29.5 -72.5v-410q0 -43 29.5 -72.5t72.5 -29.5t73 29.5t30 72.5h204q0 -127 -90 -217t-217 -90t-217 90t-90 217zM182 -203l205 307h102l-102 -307h-205z" />
<glyph unicode="&#xe8;" horiz-adv-x="749" d="M94 1401h203l153 -254h-151zM68 307v410q0 127 90 217t217 90t217 -90t90 -217v-103v-204h-205h-205v-103q0 -43 30 -72.5t73 -29.5t72.5 29.5t29.5 72.5h205q0 -127 -90 -217t-217 -90t-217 90t-90 217zM272 614h205v103q0 43 -29.5 72.5t-72.5 29.5t-73 -29.5 t-30 -72.5v-103z" />
<glyph unicode="&#xe9;" horiz-adv-x="749" d="M68 307v410q0 127 90 217t217 90t217 -90t90 -217v-103v-204h-205h-205v-103q0 -43 30 -72.5t73 -29.5t72.5 29.5t29.5 72.5h205q0 -127 -90 -217t-217 -90t-217 90t-90 217zM272 614h205v103q0 43 -29.5 72.5t-72.5 29.5t-73 -29.5t-30 -72.5v-103zM300 1229l154 256 h204l-204 -256h-154z" />
<glyph unicode="&#xea;" horiz-adv-x="749" d="M67 307v410q0 127 90 217t217 90t217 -90t90 -217v-103v-204h-205h-205v-103q0 -43 30 -72.5t73 -29.5t72.5 29.5t29.5 72.5h205q0 -127 -90 -217t-217 -90t-217 90t-90 217zM68 1231l204 256h205l205 -256h-180l-127 153l-127 -153h-180zM271 614h205v103 q0 43 -29.5 72.5t-72.5 29.5t-73 -29.5t-30 -72.5v-103z" />
<glyph unicode="&#xeb;" horiz-adv-x="749" d="M68 307v410q0 127 90 217t217 90t217 -90t90 -217v-103v-204h-205h-205v-103q0 -43 30 -72.5t73 -29.5t72.5 29.5t29.5 72.5h205q0 -127 -90 -217t-217 -90t-217 90t-90 217zM68 1227v205h204v-205h-204zM272 614h205v103q0 43 -29.5 72.5t-72.5 29.5t-73 -29.5 t-30 -72.5v-103zM477 1227v205h205v-205h-205z" />
<glyph unicode="&#xec;" horiz-adv-x="391" d="M-80 1434l205 -256h154l-154 256h-205zM101 0v1024h205v-1024h-205z" />
<glyph unicode="&#xed;" horiz-adv-x="368" d="M86 0v1024h205v-1024h-205zM90 1178l153 256h205l-205 -256h-153z" />
<glyph unicode="&#xee;" horiz-adv-x="401" d="M-106 1229l204 256h205l205 -256h-180l-127 153l-129 -153h-178zM104 0v1024h205v-1024h-205z" />
<glyph unicode="&#xef;" horiz-adv-x="443" d="M-86 1227v205h205v-205h-205zM110 0v1024h205v-1024h-205zM324 1227v205h204v-205h-204z" />
<glyph unicode="&#xf1;" d="M27 1315l180 96q20 -37 60.5 -49.5t77.5 7.5q112 59 233 22t180 -149l-180 -96q-20 37 -60 49.5t-78 -7.5q-112 -59 -233 -22t-180 149zM86 0v1024h205v-205q0 8 1 22.5t12 49.5t30.5 61.5t61.5 49t99.5 22.5t99.5 -21.5t61.5 -51t30.5 -59.5t11 -52l2 -21v-100v-2v-717 h-204v717v2q0 8 -3.5 19.5t-11.5 33t-30.5 34.5t-57.5 13q-31 0 -53.5 -12t-31.5 -30.5t-13 -31t-4 -24.5v-721h-205z" />
<glyph unicode="&#xf2;" horiz-adv-x="753" d="M68 297v8v406q0 129 90 219t219 90q127 0 217 -88t92 -215v-412q0 -129 -91 -219t-218 -90t-216 88t-93 213zM98 1434h203l154 -254h-152zM274 305q0 -43 30 -72.5t73 -29.5q41 0 71.5 28.5t30.5 69.5v410q0 43 -29.5 72.5t-72.5 29.5t-73 -29.5t-30 -70.5v-408z" />
<glyph unicode="&#xf3;" horiz-adv-x="753" d="M68 297v8v406q0 129 90 219t219 90q127 0 217 -88t92 -215v-412q0 -129 -91 -219t-218 -90t-216 88t-93 213zM274 305q0 -43 30 -72.5t73 -29.5q41 0 71.5 28.5t30.5 69.5v410q0 43 -29.5 72.5t-72.5 29.5t-73 -29.5t-30 -70.5v-408zM301 1178l152 254h202l-202 -254 h-152z" />
<glyph unicode="&#xf4;" horiz-adv-x="753" d="M68 297v8v406q0 129 90 219t219 90q127 0 217 -88t92 -215v-412q0 -129 -91 -219t-218 -90t-216 88t-93 213zM72 1180l202 254h205l203 -254h-176l-129 155l-129 -155h-176zM274 305q0 -43 30 -72.5t73 -29.5q41 0 71.5 28.5t30.5 69.5v410q0 43 -29.5 72.5t-72.5 29.5 t-73 -29.5t-30 -70.5v-408z" />
<glyph unicode="&#xf5;" horiz-adv-x="753" d="M11 1311l180 96q20 -37 60.5 -49.5t77.5 7.5q112 59 233 22t180 -149l-180 -96q-20 37 -60 49.5t-78 -7.5q-112 -59 -233 -22t-180 149zM68 297v8v406q0 129 90 219t219 90q127 0 217 -88t92 -215v-412q0 -129 -91 -219t-218 -90t-216 88t-93 213zM274 305 q0 -43 30 -72.5t73 -29.5q41 0 71.5 28.5t30.5 69.5v410q0 43 -29.5 72.5t-72.5 29.5t-73 -29.5t-30 -70.5v-408z" />
<glyph unicode="&#xf6;" horiz-adv-x="770" d="M68 1229v203h202v-203h-202zM84 297v8v406q0 129 90 219t219 90q127 0 217 -88t92 -215v-412q0 -129 -91 -219t-218 -90t-216 88t-93 213zM290 305q0 -43 30 -72.5t73 -29.5q41 0 71.5 28.5t30.5 69.5v410q0 43 -29.5 72.5t-72.5 29.5t-73 -29.5t-30 -70.5v-408z M477 1229v203h203v-203h-203z" />
<glyph unicode="&#xf9;" d="M113 1401h203l153 -254h-151zM86 205v100v719h205v-717q0 -4 1 -11t6 -24.5t14.5 -31t31 -24.5t49.5 -11q31 0 53.5 12t31.5 30.5t13.5 31t4.5 24.5v721h204v-1024h-204v205q0 -8 -1 -22.5t-12.5 -49.5t-31 -61.5t-61.5 -49t-99.5 -22.5t-99 21.5t-61 51t-31 59.5 t-11.5 52z" />
<glyph unicode="&#xfb;" d="M88 1147l203 254h205l203 -254h-177l-129 155l-129 -155h-176zM86 205v100v719h205v-717q0 -4 1 -11t6 -24.5t14.5 -31t31 -24.5t49.5 -11q31 0 53.5 12t31.5 30.5t13.5 31t4.5 24.5v721h204v-1024h-204v205q0 -8 -1 -22.5t-12.5 -49.5t-31 -61.5t-61.5 -49t-99.5 -22.5 t-99 21.5t-61 51t-31 59.5t-11.5 52z" />
<glyph unicode="&#x152;" horiz-adv-x="1210" d="M98 307v819q0 129 79 218.5t204 89.5q102 0 178 -78v78h615v-205h-410v-410h307v-205h-307v-409h410v-205h-615v78q-31 -33 -47 -45.5t-49 -22.5t-82 -10q-125 0 -204 89t-79 218zM303 307q0 -43 29.5 -72.5t73 -29.5t73 29.5t29.5 72.5v289v242v288q0 43 -29.5 73 t-73 30t-73 -30t-29.5 -73v-288v-242v-289z" />
<glyph unicode="&#x153;" horiz-adv-x="1157" d="M68 303v8v404q0 129 90 221t217 92q109 0 203 -80q87 80 206 80q127 0 217.5 -90t90.5 -217v-103v-204h-205h-205v-103v-8q4 -39 32.5 -66.5t69.5 -27.5q43 0 73 29.5t30 72.5h205q0 -127 -90.5 -217t-217.5 -90q-117 0 -204 78q-88 -78 -205 -78q-125 0 -215 87t-92 212 zM272 311q0 -43 30 -72.5t73 -29.5q41 0 70.5 27.5t31.5 68.5v6v410v2q-2 39 -31.5 66.5t-70.5 27.5t-72 -28.5t-31 -71.5v-406zM682 618h205v103q0 43 -30 72.5t-73 29.5q-41 0 -70.5 -27.5t-31.5 -68.5v-6v-103z" />
<glyph unicode="&#x2c6;" horiz-adv-x="733" d="M51 1229l203 254h205l203 -254h-177l-129 155l-129 -155h-176z" />
<glyph unicode="&#x2dc;" horiz-adv-x="380" d="M-365 291l180 96q20 -37 60.5 -49.5t77.5 7.5q112 59 233 22t180 -149l-180 -96q-20 37 -60 49.5t-78 -7.5q-112 -59 -233 -22t-180 149z" />
<glyph unicode="&#x2000;" horiz-adv-x="910" />
<glyph unicode="&#x2001;" horiz-adv-x="1821" />
<glyph unicode="&#x2002;" horiz-adv-x="910" />
<glyph unicode="&#x2003;" horiz-adv-x="1821" />
<glyph unicode="&#x2004;" horiz-adv-x="607" />
<glyph unicode="&#x2005;" horiz-adv-x="455" />
<glyph unicode="&#x2006;" horiz-adv-x="303" />
<glyph unicode="&#x2007;" horiz-adv-x="303" />
<glyph unicode="&#x2008;" horiz-adv-x="227" />
<glyph unicode="&#x2009;" horiz-adv-x="364" />
<glyph unicode="&#x200a;" horiz-adv-x="101" />
<glyph unicode="&#x2010;" horiz-adv-x="671" d="M90 565v164h492v-164h-492z" />
<glyph unicode="&#x2011;" horiz-adv-x="671" d="M90 565v164h492v-164h-492z" />
<glyph unicode="&#x2012;" horiz-adv-x="671" d="M90 565v164h492v-164h-492z" />
<glyph unicode="&#x2013;" horiz-adv-x="1024" d="M90 565v164h845v-164h-845z" />
<glyph unicode="&#x2014;" horiz-adv-x="2048" d="M90 565v164h1869v-164h-1869z" />
<glyph unicode="&#x2018;" horiz-adv-x="825" d="M209 1739h203l153 -254h-151z" />
<glyph unicode="&#x2019;" horiz-adv-x="380" d="M109 1106v328h163v-328h-163z" />
<glyph unicode="&#x201c;" horiz-adv-x="618" d="M109 1106v328h163v-328h-163zM346 1106v328h164v-328h-164z" />
<glyph unicode="&#x201d;" horiz-adv-x="618" d="M109 1106v328h163v-328h-163zM346 1106v328h164v-328h-164z" />
<glyph unicode="&#x2026;" horiz-adv-x="1128" d="M838 0v205h205v-205h-205zM462 0v205h205v-205h-205zM86 0v205h205v-205h-205z" />
<glyph unicode="&#x202f;" horiz-adv-x="364" />
<glyph unicode="&#x2039;" horiz-adv-x="901" d="M443 527l431 429v-217l-214 -212l214 -213v-216z" />
<glyph unicode="&#x203a;" horiz-adv-x="901" d="M450 98l431 429l-431 429v-217l214 -212l-214 -213v-216z" />
<glyph unicode="&#x205f;" horiz-adv-x="455" />
<glyph unicode="&#x2122;" horiz-adv-x="1720" d="M700 0v1434h205l256 -768l256 768h205v-1434h-205v768l-153 -461h-205l-154 461v-768h-205zM-6 1229v205h614v-205h-205v-1229h-204v1229h-205z" />
<glyph unicode="&#xe000;" horiz-adv-x="1025" d="M0 1025h1025v-1025h-1025v1025z" />
<glyph unicode="&#xfb01;" horiz-adv-x="826" d="M536 0v1024h205v-1024h-205zM536 1229v205h205v-205h-205zM20 819v205h103v106q2 125 91 214.5t216 89.5v-205q-43 0 -72.5 -30t-29.5 -73v-102h102v-205h-102v-819h-205v819h-103z" />
<glyph unicode="&#xfb02;" horiz-adv-x="858" d="M524 305v4v1125h205v-1125v-4q2 -41 31.5 -70.5t72.5 -29.5v-205q-127 0 -217 89t-92 216zM20 819v205h103v106q2 125 91 214.5t216 89.5v-205q-43 0 -72.5 -30t-29.5 -73v-102h102v-205h-102v-819h-205v819h-103z" />
<glyph unicode="&#xfb03;" horiz-adv-x="1276" d="M986 0v1024h205v-1024h-205zM986 1229v205h205v-205h-205zM470 819v205h103v106q2 125 91 214.5t216 89.5v-205q-43 0 -72.5 -30t-29.5 -73v-102h102v-205h-102v-819h-205v819h-103zM20 819v205h103v106q2 125 91 214.5t216 89.5v-205q-43 0 -72.5 -30t-29.5 -73v-102 h102v-205h-102v-819h-205v819h-103z" />
<glyph unicode="&#xfb04;" horiz-adv-x="1308" d="M974 305v4v1125h205v-1125v-4q2 -41 31.5 -70.5t72.5 -29.5v-205q-127 0 -217 89t-92 216zM470 819v205h103v106q2 125 91 214.5t216 89.5v-205q-43 0 -72.5 -30t-29.5 -73v-102h102v-205h-102v-819h-205v819h-103zM20 819v205h103v106q2 125 91 214.5t216 89.5v-205 q-43 0 -72.5 -30t-29.5 -73v-102h102v-205h-102v-819h-205v819h-103z" />
</font>
</defs>
</svg>
